Eraserhead (1976), Remastered Version (2000) 

Director: David Lynch

Eraserhead is a 1976 American surrealist film written, directed, and produced by David Lynch, and released in 1977. In 1971, Lynch moved to Los Angeles to attend the AFI Conservatory. At the Conservatory, Lynch began working on his first feature-length film, Eraserhead, using a $10,000 grant from the AFI. The grant was not sufficient to complete the film and, as a result, Lynch worked on Eraserhead intermittently until its release in 1977. Lynch used money from friends and family, including boyhood friend Jack Fisk, a production designer and the husband of actress Sissy Spacek, and from odd jobs to finish the film.

The film follows a short period of the life of Henry Spencer (Jack Nance), a printer on vacation. Henry discovers that his estranged girlfriend, Mary X (Charlotte Stewart), has given birth to a bizarrely deformed baby. He marries her, and, after a tumultuous and brief time living together, Mary leaves Henry who then cares for the ill baby himself. A bizarre sequence of events—that have little to no explanation to how or why they happen—ensues, including visions of a woman in Henry's radiator dancing and stomping on small tadpole-like creatures, a tryst with the woman across the hall, and a dream sequence in which Henry's head is used to make pencil erasers.

Eraserhead polarized and baffled many critics and movie-goers, but has become a cult classic. In 2004, the film was deemed culturally, historically, or aesthetically significant by the United States Library of Congress and selected for preservation in the National Film Registry. Lynch has called it a dream of dark and troubling things and his most spiritual movie.

Media Info:
General
Complete name                    : J:\Seeding\Eraserhead (1977)[DVDRip][big_dad_e]\Eraserhead (1977)[DVDRip][big_dad_e].avi
Format                           : AVI
Format/Info                      : Audio Video Interleave
File size                        : 852 MiB
Duration                         : 1h 28mn
Overall bit rate                 : 1 342 Kbps

Video
ID                               : 0
Format                           : MPEG-4 Visual
Format profile                   : Simple@L1
Format settings, BVOP            : No
Format settings, QPel            : No
Format settings, GMC             : No warppoints
Format settings, Matrix          : Default (H.263)
Codec ID                         : DIVX
Codec ID/Info                    : Project Mayo
Codec ID/Hint                    : DivX 4
Duration                         : 1h 28mn
Bit rate                         : 1 200 Kbps
Width                            : 720 pixels
Height                           : 480 pixels
Display aspect ratio             : 16:9
Frame rate                       : 29.970 fps
Standard                         : NTSC
Color space                      : YUV
Chroma subsampling               : 4:2:0
Bit depth                        : 8 bits
Scan type                        : Progressive
Bits/(Pixel*Frame)               : 0.116
Stream size                      : 762 MiB (89%)
Writing library                  : avc2.0.11.1110

Audio
ID                               : 1
Format                           : MPEG Audio
Format version                   : Version 1
Format profile                   : Layer 3
Mode                             : Joint stereo
Mode extension                   : MS Stereo
Codec ID                         : 55
Codec ID/Hint                    : MP3
Duration                         : 1h 28mn
Bit rate mode                    : Constant
Bit rate                         : 128 Kbps
Channel(s)                       : 2 channels
Sampling rate                    : 48.0 KHz
Stream size                      : 81.3 MiB (10%)
Alignment                        : Aligned on interleaves
Interleave, duration             : 24 ms (0.72 video frame)

File Scan:
Malwarebytes' Anti-Malware 1.46
www.malwarebytes.org

Database version: 5049

Windows 5.1.2600 Service Pack 3
Internet Explorer 8.0.6001.18702

11/5/2010 5:32:57 AM
mbam-log-2010-11-05 (05-32-57).txt

Scan type: Quick scan
Objects scanned: 0
Time elapsed: 6 second(s)

Memory Processes Infected: 0
Memory Modules Infected: 0
Registry Keys Infected: 0
Registry Values Infected: 0
Registry Data Items Infected: 0
Folders Infected: 0
Files Infected: 0

Memory Processes Infected:
(No malicious items detected)

Memory Modules Infected:
(No malicious items detected)

Registry Keys Infected:
(No malicious items detected)

Registry Values Infected:
(No malicious items detected)

Registry Data Items Infected:
(No malicious items detected)

Folders Infected:
(No malicious items detected)

Files Infected:
(No malicious items detected)

When using TPB please read these important notes:
  
01- Anti-malware apps may warn about keygens, patches, cracks, etc., because of 
    their capabilities, (generating codes, etc.). Sometimes they're added to 
    the virus/spyware database and will be detected as malware. If you don't trust
    the keygens, patches, cracks, etc., don't use them. 
    
02- Before running .exe-files, keygens, patches, cracks, etc., always check first 
    if they can be unpacked. Often some third party added a virus to the 
    original file, repacked it and uploaded it again.

03- Letting anti-malware apps send scan results to their companies can cause
    keygens, patches, cracks, etc., to be added to their virus-database.

04- Firewalls which are set to automatically determine connections will allow 
    apps & malware!. Avoid this by manually configuring your firewall.

05- Usually (new) torrents with many downloads and seeders in a brief period is
    suspicious! Torrents with the Skull & Crossbones icon are trusted.

06- Some people use multiple accounts and post fake comments 
    and/or files trying to spread confusion. They seldom seriously
    comment or have any torrents, or a just a few to look passable.

07- Clicking on unknown links can cause malware to be installed on your machine.
  
08- In general often there are more fake and negative comments than reliable and
    positive comments.

09- In some countries uploading/downloading copyright protected material is 
    forbidden, but showing some appreciation to reliable up-loaders is not.

10- Posting fake and negative comments or fake/infected uploads on TPB can result
    in getting banned from TPB!
 

For reporting bad or suspicious torrents:  
http://forum.suprbay.org/forumdisplay.php?fid=29

For more of my torrents: 
https://thepiratebay.org/user/big_dad_e/  (Secured)

All torrents scanned with:
Norton Anti-virus
Malwarebytes' Anti-malware
 
http://www.pirate-party.us/

ALWAYS SEED & THANKS SEEDERS!